<?xml version="1.0" encoding="UTF-8" standalone="no"?>
<!-- Created with Inkscape (http://www.inkscape.org/) -->
<svg
   xmlns:dc="http://purl.org/dc/elements/1.1/"
   xmlns:cc="http://creativecommons.org/ns#"
   xmlns:rdf="http://www.w3.org/1999/02/22-rdf-syntax-ns#"
   xmlns:svg="http://www.w3.org/2000/svg"
   xmlns="http://www.w3.org/2000/svg"
   xmlns:sodipodi="http://sodipodi.sourceforge.net/DTD/sodipodi-0.dtd"
   xmlns:inkscape="http://www.inkscape.org/namespaces/inkscape"
   width="500"
   height="1012.55"
   id="svg2"
   sodipodi:version="0.32"
   inkscape:version="0.46"
   version="1.0"
   sodipodi:docname="Logo Tottenham_Hotspur.svg"
   inkscape:output_extension="org.inkscape.output.svg.inkscape">
  <defs
     id="defs4">
    <inkscape:perspective
       sodipodi:type="inkscape:persp3d"
       inkscape:vp_x="0 : 526.18109 : 1"
       inkscape:vp_y="0 : 1000 : 0"
       inkscape:vp_z="744.09448 : 526.18109 : 1"
       inkscape:persp3d-origin="372.04724 : 350.78739 : 1"
       id="perspective10" />
    <inkscape:perspective
       id="perspective2521"
       inkscape:persp3d-origin="160.2715 : 220.94434 : 1"
       inkscape:vp_z="320.543 : 331.4165 : 1"
       inkscape:vp_y="0 : 1000 : 0"
       inkscape:vp_x="0 : 331.4165 : 1"
       sodipodi:type="inkscape:persp3d" />
  </defs>
  <sodipodi:namedview
     id="base"
     pagecolor="#ffffff"
     bordercolor="#666666"
     borderopacity="1.0"
     inkscape:pageopacity="0.0"
     inkscape:pageshadow="2"
     inkscape:zoom="0.35"
     inkscape:cx="-56.309696"
     inkscape:cy="337.57194"
     inkscape:document-units="px"
     inkscape:current-layer="layer1"
     showgrid="false"
     inkscape:window-width="1280"
     inkscape:window-height="750"
     inkscape:window-x="-8"
     inkscape:window-y="-8" />
  <metadata
     id="metadata7">
    <rdf:RDF>
      <cc:Work
         rdf:about="">
        <dc:format>image/svg+xml</dc:format>
        <dc:type
           rdf:resource="http://purl.org/dc/dcmitype/StillImage" />
      </cc:Work>
    </rdf:RDF>
  </metadata>
  <g
     inkscape:label="Ebene 1"
     inkscape:groupmode="layer"
     id="layer1"
     transform="translate(485.9873,511.63303)">
    <g
       id="g2568"
       transform="matrix(1.497445,0,0,1.497445,251.75193,-229.23361)">
      <path
         id="path2474"
         d="M -397.17429,265.42523 C -399.01629,264.96423 -400.60729,263.82123 -401.83529,262.10723 C -408.06329,271.71523 -410.68929,280.30523 -408.39929,288.01423 C -398.81829,320.36423 -370.27629,344.25523 -336.09329,347.43723 C -368.76329,337.51423 -392.94129,303.47323 -397.17429,265.42523 M -403.86429,246.30723 C -405.92229,244.84023 -407.68529,243.46723 -408.93929,242.26923 C -411.12429,250.31723 -412.13229,258.83123 -411.77429,267.60423 C -411.70429,269.37623 -411.57729,271.13223 -411.40129,272.87123 C -410.13729,267.68723 -407.64729,262.27123 -404.07929,256.74723 C -404.76929,253.51523 -404.65929,249.83923 -403.86429,246.30723 z M -402.25329,241.36923 C -401.39029,239.40823 -400.30929,237.59923 -399.02229,236.07323 C -397.98729,234.85423 -396.88429,233.88423 -395.71329,233.16423 C -392.60429,218.67523 -386.11129,205.77023 -376.62029,196.01423 C -390.79129,206.08923 -401.65229,220.45523 -407.36229,237.12423 C -406.60429,238.16323 -404.58929,239.73023 -402.25329,241.36923 z M -279.66329,315.74823 C -286.73729,314.96223 -296.20129,313.09323 -300.33329,311.66223 C -304.94529,310.06723 -309.04829,306.21423 -311.30329,301.34623 C -312.23729,299.33423 -313.08229,296.65823 -313.21729,293.41323 C -313.29329,291.47323 -313.10829,289.33423 -312.54029,287.01923 C -338.47629,279.10923 -365.94829,268.12323 -385.07329,257.91023 C -385.74729,259.14223 -386.51629,260.28823 -387.37929,261.30923 C -388.81729,263.01123 -390.43329,264.24523 -392.09629,264.95023 C -390.30029,280.86323 -384.77429,296.45623 -375.97529,310.04223 C -364.30329,328.06423 -348.40629,340.41423 -331.23429,344.30223 C -325.14629,345.67423 -317.18929,347.38623 -310.06929,345.80923 C -283.67329,339.96423 -262.15629,321.70623 -251.64029,297.68923 C -252.87229,297.90823 -254.25629,298.03423 -255.74329,298.08523 C -261.76429,315.70623 -274.43029,316.32523 -279.66329,315.74823 z M -244.73529,260.80523 C -245.11029,251.52523 -246.98229,242.66423 -250.11329,234.44123 C -253.96329,224.35723 -266.83029,217.20623 -283.77929,213.36723 C -315.11429,206.28323 -356.27429,217.98523 -382.46529,240.02023 C -381.45929,244.03923 -381.75729,248.83223 -383.10829,253.20523 C -364.23629,263.35223 -336.79029,274.33523 -310.89529,282.21723 C -304.80129,268.22223 -293.13329,265.55423 -284.03329,267.82823 C -277.51429,269.45423 -273.32329,270.30723 -270.26429,270.92323 L -266.89829,271.63423 C -262.57329,272.64623 -258.77829,275.52023 -256.50229,279.52423 C -254.88929,282.35323 -253.40829,286.82723 -254.41929,292.98923 C -251.23729,292.80323 -249.69729,292.26923 -249.34129,291.84823 C -245.94329,282.16023 -244.28929,271.68023 -244.73529,260.80523 z M -259.58429,292.98823 C -258.54229,287.82523 -259.66929,284.23223 -260.92429,282.03523 C -262.49629,279.26123 -265.10229,277.27423 -268.05029,276.58423 L -271.27429,275.90623 C -274.20829,275.31323 -278.63329,274.41323 -285.26529,272.75823 C -294.14729,270.54023 -301.76829,274.60723 -305.97629,283.67723 C -301.65029,284.93523 -297.38829,286.09823 -293.23529,287.15023 C -292.56629,283.91923 -292.42329,281.67823 -292.42329,281.63823 C -292.33729,280.23923 -291.13429,279.17023 -289.73429,279.25223 C -288.33329,279.33423 -287.26429,280.53123 -287.34829,281.93723 C -287.35629,282.11923 -287.52029,284.68923 -288.29129,288.35623 C -287.46929,288.54923 -286.64529,288.74323 -285.83729,288.92423 C -285.00429,289.11523 -284.18429,289.29623 -283.38029,289.46623 C -282.65629,285.89223 -282.18929,282.85523 -282.17729,282.79323 C -281.96629,281.40623 -280.66929,280.45423 -279.28529,280.66423 C -277.89329,280.87223 -276.94129,282.16823 -277.14729,283.55723 C -277.18429,283.80123 -277.65629,286.84323 -278.40129,290.48923 C -276.69729,290.82223 -275.08129,291.11223 -273.54929,291.37423 C -272.98529,288.29123 -272.84729,285.84023 -272.84729,285.79423 C -272.78029,284.39323 -271.58429,283.31223 -270.18329,283.38123 C -268.77829,283.44823 -267.69629,284.64023 -267.76829,286.03823 C -267.77729,286.24723 -267.91429,288.82123 -268.51829,292.13523 C -264.99629,292.61323 -262.03829,292.87523 -259.58429,292.98823 z M -306.69029,299.20323 C -304.70529,303.49123 -301.24529,305.97023 -298.66929,306.85723 C -295.32129,308.01823 -286.46429,309.87823 -279.10729,310.68523 C -271.03729,311.57823 -264.72829,307.08823 -261.13229,298.01623 C -263.83229,297.86123 -266.72429,297.54423 -269.71529,297.12823 C -270.27629,298.95423 -270.99029,300.77523 -271.91229,302.39223 C -272.60529,303.61223 -274.15429,304.03323 -275.37529,303.34323 C -276.59529,302.64923 -277.02129,301.09623 -276.32529,299.87123 C -275.71529,298.79923 -275.21129,297.58223 -274.79329,296.32823 C -276.37129,296.05923 -277.95929,295.76023 -279.53129,295.45723 C -280.07029,297.56523 -280.68829,299.56823 -281.33629,301.06623 C -281.89729,302.35323 -283.39929,302.93823 -284.68629,302.37923 C -285.97529,301.81923 -286.55829,300.32123 -285.99929,299.03423 C -285.47429,297.83023 -284.97229,296.19723 -284.51029,294.42723 C -285.33429,294.24623 -286.15129,294.06523 -286.95929,293.88323 C -287.81329,293.69123 -288.68829,293.48423 -289.56029,293.27423 C -290.01829,294.74723 -290.55629,296.27923 -291.21329,297.83123 C -291.75529,299.12323 -293.25429,299.72823 -294.54629,299.18323 C -295.83629,298.63923 -296.44729,297.14623 -295.90029,295.85523 C -295.35229,294.57523 -294.89929,293.30023 -294.51129,292.07223 C -298.79429,290.98623 -303.19629,289.77823 -307.65929,288.47623 C -308.73529,293.15723 -307.80129,296.81723 -306.69029,299.20323 z M -390.43729,235.85723 C -391.56429,235.65123 -393.80029,235.66823 -396.03429,238.09723 C -399.57329,241.93223 -401.23429,247.12923 -400.97829,253.53223 L -400.97829,253.53223 C -400.90729,255.16523 -400.67929,256.08023 -400.21729,257.39623 C -399.39229,259.72323 -397.41029,261.26123 -395.96229,261.52423 C -394.24129,261.83923 -392.29829,260.83323 -390.48429,258.68623 C -386.52129,253.98423 -384.81229,245.36223 -386.75629,239.86123 C -387.56329,237.56723 -388.86829,236.14523 -390.43729,235.85723 z"
         style="fill:#002156" />
      <path
         id="path2476"
         d="M -364.47229,-181.91077 C -397.22029,-181.91077 -404.98329,-165.11977 -404.98329,-165.11977 C -404.98329,-165.11977 -367.19729,-167.85077 -367.19729,-130.53177 C -367.19729,-113.73677 -376.33729,-102.35277 -386.01129,-90.30577 C -397.25029,-76.31477 -409.98229,-60.45577 -409.98229,-33.85177 C -409.98229,10.18723 -381.69029,30.84723 -356.72929,49.07323 C -334.98329,64.95523 -314.44529,79.95323 -314.44529,108.19423 C -314.44529,136.59223 -326.90029,158.60723 -332.58529,164.28923 C -342.12029,173.82423 -350.71229,175.55823 -357.60929,176.95323 C -364.69429,178.38323 -371.38929,179.75723 -372.79429,189.93523 C -399.01429,205.68223 -414.89829,233.72923 -414.89829,264.15823 C -414.89829,265.34423 -414.87329,266.53623 -414.82629,267.72923 C -413.88429,290.85523 -403.99229,312.23023 -386.97529,327.91323 C -369.95929,343.60023 -347.85129,351.71623 -324.72929,350.77323 C -301.60429,349.83123 -280.23329,339.93823 -264.54629,322.92623 C -248.85929,305.90923 -240.74229,283.80023 -241.68929,260.68123 C -243.12129,225.37923 -265.52329,194.78323 -298.75629,182.73623 L -298.62929,182.78323 C -298.65029,182.77423 -299.08229,182.60123 -299.08229,182.60123 C -299.08729,182.59723 -299.86629,182.32623 -299.86629,182.32623 C -304.06929,180.87523 -308.83729,179.22723 -308.83729,168.41723 C -308.83729,157.94223 -304.08229,157.07323 -294.61829,155.33523 C -288.99229,154.30223 -282.10929,153.04023 -275.35929,148.91623 C -263.34529,141.58323 -261.09029,132.73623 -263.27829,130.55223 C -266.25429,127.57123 -269.53629,133.83223 -281.62929,137.47523 C -285.98829,138.79123 -290.37629,139.55623 -293.34029,139.55623 C -295.80529,139.55623 -297.64529,139.34923 -298.99529,139.10423 C -292.64429,127.20523 -285.52929,117.46523 -285.45029,117.36323 L -283.90029,115.25323 L -285.75329,113.40023 C -288.21029,110.94423 -289.62429,105.83423 -289.62429,98.98223 C -289.62429,90.52823 -287.47429,79.42623 -282.48429,67.37323 C -276.58029,53.13023 -253.15029,6.64623 -199.40929,6.64623 L -196.35829,6.64623 L -196.35829,3.59623 C -196.35829,-15.61677 -198.11429,-33.28677 -201.57229,-48.92277 L -202.24629,-51.96077 C -202.24629,-51.96077 -207.46329,-50.47977 -211.80929,-49.50977 C -212.32729,-49.39577 -216.39229,-48.39677 -216.57629,-49.25477 C -216.74029,-50.01277 -213.60129,-51.58977 -212.51629,-52.13377 C -208.43529,-54.16377 -203.34829,-56.29977 -203.34829,-56.29977 L -204.05029,-58.74477 C -207.88329,-72.12277 -211.74129,-78.51677 -211.90629,-78.78377 L -213.15129,-80.82177 L -215.42229,-80.10277 C -260.17529,-66.00477 -269.74429,-36.30777 -275.46229,-18.56777 C -278.24529,-9.94677 -279.96629,-5.06977 -283.07829,-5.06977 C -292.31529,-5.06977 -299.95629,-12.70877 -302.46829,-15.21977 C -330.36929,-43.12377 -328.23329,-63.24077 -324.99229,-93.69577 C -323.84529,-104.44277 -322.54829,-116.62077 -322.54829,-130.52977 C -322.54929,-165.58377 -335.87029,-181.91077 -364.47229,-181.91077"
         style="fill:#ffffff" />
      <path
         id="path2478"
         d="M -311.39429,108.19323 C -311.39429,136.47523 -323.45729,159.47523 -330.42729,166.44323 C -352.02529,188.04323 -369.84029,172.31423 -370.03329,193.98423 C -379.83429,202.86023 -386.88529,216.35523 -390.34529,231.76823 C -390.13029,231.78923 -389.91629,231.81923 -389.70529,231.85923 C -387.67729,232.22923 -385.93529,233.38823 -384.60529,235.21823 C -357.17329,212.86123 -314.93729,201.10623 -282.65529,208.40623 C -272.39129,210.72623 -263.68629,214.51523 -257.09229,220.31323 C -267.00629,204.27823 -282.16129,191.90323 -300.07529,185.48223 C -304.32829,183.95723 -311.88629,182.21123 -311.88629,168.41523 C -311.88629,142.66623 -283.71529,162.68523 -265.15429,134.64023 C -264.24629,133.25523 -265.55329,132.04623 -266.64329,133.13523 C -272.25729,138.74523 -286.04529,142.60623 -293.33829,142.60623 C -300.63929,142.60623 -303.38529,140.94323 -303.38529,140.94323 C -296.49329,127.22823 -287.90929,115.55523 -287.90929,115.55523 C -305.14029,98.32523 -276.14029,3.59323 -199.40729,3.59323 C -199.40729,-18.38177 -201.72929,-35.52177 -204.55029,-48.26777 C -206.37629,-47.82277 -220.82929,-44.41477 -221.49029,-47.45377 C -222.07529,-50.14677 -210.84429,-55.98477 -206.97729,-57.90577 C -210.74829,-71.04077 -214.50429,-77.19677 -214.50429,-77.19677 C -280.27329,-56.47577 -267.05529,-2.02377 -283.07729,-2.02377 C -293.50529,-2.02377 -301.69729,-10.14077 -304.62229,-13.06677 C -343.90529,-52.34377 -325.59729,-78.33877 -325.59729,-130.53377 C -325.59729,-165.69477 -339.25229,-178.86277 -364.47029,-178.86277 C -389.68629,-178.86277 -398.69629,-167.94377 -398.69629,-167.94377 C -398.69629,-167.94377 -364.14529,-166.82477 -364.14529,-130.53377 C -364.14529,-92.53977 -406.93129,-82.05277 -406.93129,-33.85477 C -406.93229,46.38023 -311.39429,44.87323 -311.39429,108.19323 M -356.94029,-130.53177 C -356.94029,-135.18977 -357.44129,-139.39577 -358.35029,-143.19177 C -358.35029,-143.19177 -350.83029,-143.58477 -350.83029,-152.73677 C -350.83029,-160.28077 -355.86329,-165.42477 -357.21229,-165.42477 C -358.30129,-165.42477 -358.57129,-164.26877 -360.92829,-164.26877 C -366.67129,-164.26877 -367.09229,-171.60777 -367.09229,-171.60777 C -366.24229,-171.63677 -365.36829,-171.64977 -364.47229,-171.64977 C -348.02829,-171.64977 -332.80829,-166.67077 -332.80829,-130.53077 C -332.80829,-117.16577 -334.07429,-105.27377 -335.19029,-94.78177 C -336.29629,-84.41977 -337.31829,-74.78077 -337.02429,-65.36877 C -337.02429,-65.36877 -365.65929,-68.74377 -365.65929,-90.28677 C -365.65929,-104.27577 -356.94029,-107.67977 -356.94029,-130.53177 z M -397.17429,265.42523 C -399.01629,264.96423 -400.60729,263.82123 -401.83529,262.10723 C -408.06329,271.71523 -410.68929,280.30523 -408.39929,288.01423 C -398.81829,320.36423 -370.27629,344.25523 -336.09329,347.43723 C -368.76329,337.51423 -392.94129,303.47323 -397.17429,265.42523 z M -403.86429,246.30723 C -405.92229,244.84023 -407.68529,243.46723 -408.93929,242.26923 C -411.12429,250.31723 -412.13229,258.83123 -411.77429,267.60423 C -411.70429,269.37623 -411.57729,271.13223 -411.40129,272.87123 C -410.13729,267.68723 -407.64729,262.27123 -404.07929,256.74723 C -404.76929,253.51523 -404.65929,249.83923 -403.86429,246.30723 z M -402.25329,241.36923 C -401.39029,239.40823 -400.30929,237.59923 -399.02229,236.07323 C -397.98729,234.85423 -396.88429,233.88423 -395.71329,233.16423 C -392.60429,218.67523 -386.11129,205.77023 -376.62029,196.01423 C -390.79129,206.08923 -401.65229,220.45523 -407.36229,237.12423 C -406.60429,238.16323 -404.58929,239.73023 -402.25329,241.36923 z M -279.66329,315.74823 C -286.73729,314.96223 -296.20129,313.09323 -300.33329,311.66223 C -304.94529,310.06723 -309.04829,306.21423 -311.30329,301.34623 C -312.23729,299.33423 -313.08229,296.65823 -313.21729,293.41323 C -313.29329,291.47323 -313.10829,289.33423 -312.54029,287.01923 C -338.47629,279.10923 -365.94829,268.12323 -385.07329,257.91023 C -385.74729,259.14223 -386.51629,260.28823 -387.37929,261.30923 C -388.81729,263.01123 -390.43329,264.24523 -392.09629,264.95023 C -390.30029,280.86323 -384.77429,296.45623 -375.97529,310.04223 C -364.30329,328.06423 -348.40629,340.41423 -331.23429,344.30223 C -325.14629,345.67423 -317.18929,347.38623 -310.06929,345.80923 C -283.67329,339.96423 -262.15629,321.70623 -251.64029,297.68923 C -252.87229,297.90823 -254.25629,298.03423 -255.74329,298.08523 C -261.76429,315.70623 -274.43029,316.32523 -279.66329,315.74823 z M -250.11329,234.44123 C -253.96329,224.35723 -266.83029,217.20623 -283.77929,213.36723 C -315.11429,206.28323 -356.27429,217.98523 -382.46529,240.02023 C -381.45929,244.03923 -381.75729,248.83223 -383.10829,253.20523 C -364.23629,263.35223 -336.79029,274.33523 -310.89529,282.21723 C -304.80129,268.22223 -293.13329,265.55423 -284.03329,267.82823 C -277.51429,269.45423 -273.32329,270.30723 -270.26429,270.92323 L -266.89829,271.63423 C -262.57329,272.64623 -258.77829,275.52023 -256.50229,279.52423 C -254.88929,282.35323 -253.40829,286.82723 -254.41929,292.98923 C -251.23729,292.80323 -249.69729,292.26923 -249.34129,291.84823 C -245.94529,282.16023 -244.29029,271.68123 -244.73729,260.80623 C -245.11029,251.52523 -246.98229,242.66523 -250.11329,234.44123 z M -306.69029,299.20323 C -304.70529,303.49123 -301.24529,305.97023 -298.66929,306.85723 C -295.32129,308.01823 -286.46429,309.87823 -279.10729,310.68523 C -271.03729,311.57823 -264.72829,307.08823 -261.13229,298.01623 C -263.83229,297.86123 -266.72429,297.54423 -269.71529,297.12823 C -270.27629,298.95423 -270.99029,300.77523 -271.91229,302.39223 C -272.60529,303.61223 -274.15429,304.03323 -275.37529,303.34323 C -276.59529,302.64923 -277.02129,301.09623 -276.32529,299.87123 C -275.71529,298.79923 -275.21129,297.58223 -274.79329,296.32823 C -276.37129,296.05923 -277.95929,295.76023 -279.53129,295.45723 C -280.07029,297.56523 -280.68829,299.56823 -281.33629,301.06623 C -281.89729,302.35323 -283.39929,302.93823 -284.68629,302.37923 C -285.97529,301.81923 -286.55829,300.32123 -285.99929,299.03423 C -285.47429,297.83023 -284.97229,296.19723 -284.51029,294.42723 C -285.33429,294.24623 -286.15129,294.06523 -286.95929,293.88323 C -287.81329,293.69123 -288.68829,293.48423 -289.56029,293.27423 C -290.01829,294.74723 -290.55629,296.27923 -291.21329,297.83123 C -291.75529,299.12323 -293.25429,299.72823 -294.54629,299.18323 C -295.83629,298.63923 -296.44729,297.14623 -295.90029,295.85523 C -295.35229,294.57523 -294.89929,293.30023 -294.51129,292.07223 C -298.79429,290.98623 -303.19629,289.77823 -307.65929,288.47623 C -308.73529,293.15723 -307.80129,296.81723 -306.69029,299.20323 z M -259.58429,292.98823 C -258.54229,287.82523 -259.66929,284.23223 -260.92429,282.03523 C -262.49629,279.26123 -265.10229,277.27423 -268.05029,276.58423 L -271.27429,275.90623 C -274.20829,275.31323 -278.63329,274.41323 -285.26529,272.75823 C -294.14729,270.54023 -301.76829,274.60723 -305.97629,283.67723 C -301.65029,284.93523 -297.38829,286.09823 -293.23529,287.15023 C -292.56629,283.91923 -292.42329,281.67823 -292.42329,281.63823 C -292.33729,280.23923 -291.13429,279.17023 -289.73429,279.25223 C -288.33329,279.33423 -287.26429,280.53123 -287.34829,281.93723 C -287.35629,282.11923 -287.52029,284.68923 -288.29129,288.35623 C -287.46929,288.54923 -286.64529,288.74323 -285.83729,288.92423 C -285.00429,289.11523 -284.18429,289.29623 -283.38029,289.46623 C -282.65629,285.89223 -282.18929,282.85523 -282.17729,282.79323 C -281.96629,281.40623 -280.66929,280.45423 -279.28529,280.66423 C -277.89329,280.87223 -276.94129,282.16823 -277.14729,283.55723 C -277.18429,283.80123 -277.65629,286.84323 -278.40129,290.48923 C -276.69729,290.82223 -275.08129,291.11223 -273.54929,291.37423 C -272.98529,288.29123 -272.84729,285.84023 -272.84729,285.79423 C -272.78029,284.39323 -271.58429,283.31223 -270.18329,283.38123 C -268.77829,283.44823 -267.69629,284.64023 -267.76829,286.03823 C -267.77729,286.24723 -267.91429,288.82123 -268.51829,292.13523 C -264.99629,292.61323 -262.03829,292.87523 -259.58429,292.98823 z M -390.43729,235.85723 C -391.56429,235.65123 -393.80029,235.66823 -396.03429,238.09723 C -399.57329,241.93223 -401.23429,247.12923 -400.97829,253.53223 L -400.97829,253.53223 C -400.90729,255.16523 -400.67929,256.08023 -400.21729,257.39623 C -399.39229,259.72323 -397.41029,261.26123 -395.96229,261.52423 C -394.24129,261.83923 -392.29829,260.83323 -390.48429,258.68623 C -386.52129,253.98423 -384.81229,245.36223 -386.75629,239.86123 C -387.56329,237.56723 -388.86829,236.14523 -390.43729,235.85723 z"
         style="fill:#002156" />
      <path
         id="path2480"
         d="M -456.18729,337.34123 C -449.77529,341.57023 -442.98429,345.37423 -442.98429,345.37423 L -445.36129,351.53423 C -446.24929,347.80223 -449.95129,345.77723 -454.72829,342.82023 L -470.36829,365.43623 C -472.27829,368.16323 -476.00229,374.13423 -476.30229,376.46023 C -476.30229,376.46023 -478.86929,374.83123 -481.21129,373.08623 C -483.66029,371.26023 -485.98729,369.56923 -485.98729,369.56923 C -483.65629,369.00223 -479.63029,363.06423 -477.20229,359.77323 L -461.98629,338.06223 C -467.68529,333.65623 -469.91029,332.79323 -473.93729,332.58323 L -468.52129,328.52223 C -468.52129,328.52223 -463.31629,332.64223 -456.18729,337.34123"
         style="fill:#002156" />
      <path
         id="path2484"
         d="M -446.06429,393.44023 C -456.92829,388.25523 -458.37229,376.28523 -453.02329,365.08023 C -447.65029,353.82823 -437.40929,347.49523 -426.59429,352.66323 C -415.78429,357.82523 -414.26129,369.76723 -419.63829,381.02223 C -424.98729,392.22823 -435.20029,398.62823 -446.06429,393.44023 M -428.14829,355.91123 C -435.09529,352.59623 -440.55729,360.44223 -444.67629,369.06923 C -448.79529,377.69423 -451.48929,386.93423 -444.54129,390.25123 C -437.59429,393.56323 -432.10329,385.66423 -427.98329,377.03823 C -423.86429,368.41223 -421.20029,359.22623 -428.14829,355.91123 z"
         style="fill:#002156" />
      <path
         id="path2486"
         d="M -397.44729,364.23423 C -390.10029,366.30823 -384.12129,367.69723 -384.12129,367.69723 L -384.75729,374.27323 C -386.72629,371.42923 -387.63029,370.73423 -393.90129,369.13623 L -401.50429,394.70123 C -402.11429,397.04123 -405.14829,405.89423 -404.17629,407.55923 C -404.17629,407.55923 -406.28829,407.10923 -409.69729,406.16323 C -413.53029,405.10123 -415.33129,404.38223 -415.33129,404.38223 C -413.36529,403.09023 -410.89229,395.52223 -410.08329,392.44523 L -402.44229,366.71023 C -408.93929,364.54323 -410.44929,364.39223 -413.55429,365.83523 L -409.78829,360.22723 C -409.78929,360.22823 -405.54729,361.94023 -397.44729,364.23423"
         style="fill:#002156" />
      <path
         id="path2488"
         d="M -367.13929,371.02523 C -359.89829,372.11923 -353.07629,372.73823 -353.07629,372.73823 L -352.80229,379.33623 C -355.50829,376.92923 -356.52729,376.15023 -363.67629,375.25023 L -367.81629,401.50323 C -368.10729,403.90923 -369.64629,413.04123 -368.45629,414.55523 C -368.45629,414.55523 -370.96429,414.27723 -374.42729,413.79323 C -377.89029,413.30123 -380.01829,412.81323 -380.01829,412.81323 C -378.32729,411.49223 -376.92129,402.84623 -376.62729,400.43823 L -372.38529,373.85823 C -378.58029,372.62123 -379.85329,373.09623 -382.82829,374.82123 L -380.13129,368.57823 C -380.13229,368.57723 -374.34729,369.93623 -367.13929,371.02523"
         style="fill:#002156" />
      <path
         id="path2490"
         d="M -340.29029,395.98623 L -340.83529,413.62923 C -331.58429,413.75123 -325.25129,413.16623 -322.43129,409.15223 L -323.84629,417.16823 C -323.84629,417.16823 -328.97029,417.27223 -336.47329,417.16823 C -344.71929,417.05023 -351.19129,416.51223 -351.19129,416.51223 C -349.81829,415.15323 -349.47829,406.55523 -349.46229,404.13823 L -348.70829,386.82223 C -348.67529,382.21123 -348.25429,374.75923 -349.80229,373.19323 C -343.10029,373.65623 -343.95329,373.64823 -337.79829,373.88723 C -329.73929,374.20723 -325.17529,373.96723 -325.17529,373.96723 L -324.16129,380.58623 C -327.30729,377.96023 -332.02429,377.65223 -339.72529,377.60723 L -340.14929,392.41523 L -328.32229,392.48223 C -327.25729,392.49423 -327.19029,393.08723 -327.19329,394.27423 C -327.20629,395.44323 -327.22229,396.06623 -328.34629,396.05423 L -340.29029,395.98623"
         style="fill:#002156" />
      <path
         id="path2492"
         d="M -288.63129,401.29723 C -287.94929,407.71723 -287.27229,412.32923 -285.80829,413.17123 C -286.17429,413.83523 -287.33429,414.70623 -288.87429,414.87023 C -290.72929,415.06823 -292.13229,414.15523 -293.41929,412.66623 L -314.39129,388.60923 L -313.60129,403.91423 C -313.34729,406.32023 -313.07029,415.43823 -311.57329,416.65523 L -318.56129,416.97323 C -317.34529,415.47123 -317.66829,406.78323 -317.92629,404.37123 L -318.91429,387.09923 C -319.17029,384.69223 -319.62129,375.14023 -321.12329,373.93323 L -314.71529,373.70123 L -293.22229,399.22923 L -295.01029,384.54123 C -295.26629,382.12623 -296.57429,373.37423 -298.02029,372.15723 C -298.02029,372.15723 -297.24929,372.08223 -294.64029,371.72823 C -292.03629,371.37423 -291.08829,371.18523 -291.08829,371.18523 C -292.29629,372.69123 -290.89529,381.67023 -290.63529,384.07823 L -288.63129,401.29723"
         style="fill:#002156" />
      <path
         id="path2494"
         d="M -249.22929,392.19523 C -248.48429,395.18223 -247.00629,402.85223 -244.81429,404.35423 C -244.81429,404.35423 -248.13129,405.31423 -250.15929,405.93723 C -251.96429,406.49223 -255.94029,407.52323 -255.94029,407.52323 C -255.00229,405.86623 -257.09329,396.65923 -257.67029,394.36123 L -259.66329,386.35023 L -272.98929,389.61923 L -271.47429,397.76523 C -271.03629,400.39923 -269.64829,409.26123 -267.85129,410.34323 C -267.85129,410.34323 -269.71529,410.72923 -273.59929,411.52523 C -276.85129,412.19423 -279.11729,412.55223 -279.11729,412.55223 C -278.11929,410.89423 -279.45729,402.67523 -279.87029,400.05423 L -283.10029,382.83123 C -283.68929,379.62123 -285.17129,371.50023 -286.95429,370.54923 C -286.95429,370.54923 -285.22529,370.22123 -281.42029,369.48123 C -277.61329,368.74023 -275.74829,368.23523 -275.74829,368.23523 C -276.68629,370.16323 -275.03329,377.95623 -274.58329,380.68623 L -273.55829,386.15223 L -260.44529,382.95523 L -261.85929,377.37123 C -262.63029,374.41223 -264.25829,367.31423 -266.08029,365.99723 C -266.08029,365.99723 -264.28029,365.47623 -260.63229,364.43923 C -256.98329,363.40923 -255.41029,362.82023 -255.41029,362.82023 C -256.13329,364.78923 -254.10429,371.70323 -253.26429,375.26623 L -249.22929,392.19523"
         style="fill:#002156" />
      <path
         id="path2496"
         d="M -224.88329,381.98623 L -237.88629,387.07823 L -237.43529,394.21923 C -237.14529,396.65623 -237.13629,398.89523 -236.60229,400.15723 C -236.34029,400.78423 -235.89029,401.19923 -235.46129,401.42323 C -235.46129,401.42323 -236.81729,401.91623 -239.05129,402.64023 C -241.28629,403.36323 -242.51429,403.71823 -242.51429,403.71823 C -241.73529,402.37323 -241.54629,400.52323 -241.61429,398.21323 L -242.76029,364.36123 C -242.86829,363.13223 -243.01629,361.97923 -243.42429,361.01223 C -243.78529,360.14923 -244.39529,359.66423 -244.82029,359.30323 C -243.34029,358.34323 -241.48729,357.29123 -239.60329,356.50123 C -236.61629,355.24223 -235.35629,355.29323 -233.17729,357.83423 L -214.10029,381.49423 C -210.63229,386.01023 -207.56529,389.04823 -205.57029,389.65323 C -205.57029,389.65323 -207.51929,390.55323 -211.18729,392.18623 C -214.85329,393.81423 -217.28029,394.74023 -217.28029,394.74023 C -217.06229,393.97423 -217.03729,393.16223 -217.51529,391.94223 C -218.02529,390.62523 -219.90229,388.39523 -221.11329,386.70423 L -224.88329,381.98623 M -227.24329,379.18423 L -238.79829,363.17323 L -237.98329,383.28223 L -227.24329,379.18423 z"
         style="fill:#002156" />
      <path
         id="path2498"
         d="M -170.40129,369.71323 C -173.01729,371.47623 -174.97529,372.82623 -174.97529,372.82623 C -175.16729,370.25223 -180.13729,363.88923 -181.59729,361.95823 L -192.80329,347.34023 L -183.78929,376.15823 C -184.14029,376.73123 -184.77829,377.53123 -185.37229,377.98023 C -187.15129,379.33223 -188.88129,379.06623 -190.46229,377.82123 L -211.80129,360.13123 L -204.33229,373.88723 C -202.50529,377.37123 -198.98429,384.62123 -196.61429,385.33623 C -196.61429,385.33623 -198.08729,386.12323 -199.95229,387.02723 C -201.80329,387.92323 -202.93529,388.45023 -202.93529,388.45023 C -202.52229,386.42623 -205.98929,380.40923 -208.00829,376.55823 L -216.31929,360.92623 C -218.84029,356.22223 -221.62129,351.43423 -224.01029,350.47923 C -222.16229,349.58323 -221.60429,349.30923 -218.96129,348.00423 C -216.75729,346.91823 -214.81529,345.85423 -214.81529,345.85423 L -190.79029,366.29123 L -200.24029,337.35523 C -200.24029,337.35523 -198.97429,336.49623 -196.57229,334.89323 C -194.17629,333.28923 -192.01429,331.69523 -192.01429,331.69523 C -191.83229,334.28323 -186.82929,340.88123 -185.00729,343.24223 L -174.66029,356.55523 C -172.46529,359.29423 -168.36229,365.39223 -165.44129,366.09023 C -165.44429,366.08923 -167.78329,367.94123 -170.40129,369.71323"
         style="fill:#002156" />
      <path
         id="path2502"
         d="M -416.27829,422.33023 C -414.05129,423.14723 -411.17829,424.14423 -411.17829,424.14423 C -413.59729,425.89823 -415.81929,432.87423 -417.26229,436.66223 L -422.84229,452.14323 C -424.33529,456.34523 -426.88129,462.43523 -426.02829,464.60923 C -426.02829,464.60923 -429.09829,463.54923 -431.58229,462.66723 C -433.70729,461.90923 -434.91429,461.50523 -437.16529,460.54223 C -434.43029,459.81723 -431.85229,450.72023 -431.01329,448.43223 L -428.45929,441.20723 L -441.83229,435.63223 L -445.69929,443.89623 C -446.95829,446.76623 -449.97029,453.26623 -449.25429,455.30223 C -449.25429,455.30223 -451.61629,454.33923 -455.07429,452.74823 C -459.14729,450.87323 -460.03429,450.37623 -460.03429,450.37623 C -457.16429,448.96623 -455.46529,444.33323 -453.28029,439.65323 L -446.28729,424.16623 C -443.92429,418.86423 -441.79029,414.26923 -441.95029,411.24723 C -441.95029,411.24723 -440.70129,411.99223 -437.26229,413.53723 C -434.52229,414.76923 -433.12229,415.38523 -431.58529,416.00223 C -433.76129,416.86823 -436.79029,424.68223 -438.38929,428.18823 L -440.43829,432.56523 L -427.37429,437.94723 L -425.37029,432.98623 C -424.43229,430.45223 -421.19229,422.87923 -421.89129,420.28623 C -421.89129,420.28523 -419.21029,421.25823 -416.27829,422.33023"
         style="fill:#002156" />
      <path
         id="path2504"
         d="M -401.17229,472.57123 C -412.81829,469.50823 -416.52229,458.23023 -413.43329,446.48223 C -410.32829,434.67123 -401.50929,426.75723 -389.92029,429.80823 C -378.33629,432.85423 -374.55429,444.08423 -377.65429,455.89523 C -380.74729,467.64823 -389.52429,475.63423 -401.17229,472.57123 M -390.81529,433.21223 C -398.25929,431.25523 -402.10529,439.78823 -404.48629,448.83623 C -406.87329,457.87823 -407.73129,467.26623 -400.29229,469.22723 C -392.84829,471.17923 -388.98129,462.58623 -386.60429,453.54323 C -384.21829,444.49723 -383.37329,435.17223 -390.81529,433.21223 z"
         style="fill:#002156" />
      <path
         id="path2506"
         d="M -369.62629,476.72923 C -369.62629,476.72923 -368.88529,475.92823 -368.38029,474.29623 C -367.66829,472.00323 -367.21029,467.59423 -366.66229,464.15523 L -363.40129,438.94223 C -370.34829,438.07123 -372.11229,438.57123 -375.16329,440.37723 L -372.30129,433.92123 C -370.13829,434.40123 -365.34529,434.91923 -359.51429,435.65523 C -355.61229,436.14323 -343.99129,437.19223 -343.99129,437.19223 L -343.59629,443.64923 C -346.15929,440.68423 -348.81829,440.41523 -354.60829,439.96023 L -357.85629,465.25823 C -358.14729,467.61323 -359.43929,475.78523 -358.15829,478.20423 C -359.55529,478.04523 -361.86929,477.78323 -363.81029,477.59023 C -365.82129,477.38423 -368.46929,476.92623 -369.62629,476.72923"
         style="fill:#002156" />
      <path
         id="path2508"
         d="M -314.26929,467.97223 C -314.18829,475.56223 -320.36229,481.05823 -329.85829,480.91823 C -337.24329,480.81023 -341.10529,477.77123 -342.58329,476.53423 L -341.04629,469.33123 C -338.75329,473.92123 -334.95329,477.25823 -330.67529,477.32523 C -326.20629,477.38823 -322.68929,474.75823 -322.61629,470.32823 C -322.57029,467.10823 -324.34229,465.16423 -331.79729,461.28523 C -338.94229,457.59623 -341.60129,453.91423 -341.60129,448.42623 C -341.60129,440.95223 -335.10129,437.15723 -327.46329,437.15523 C -321.84729,437.15023 -317.92929,438.87123 -315.46729,440.18723 L -317.05429,446.78723 C -320.46129,442.23723 -323.54629,440.55123 -327.26629,440.50023 C -330.93129,440.44023 -333.52629,442.43923 -333.50229,446.20523 C -333.47729,450.30923 -328.96229,452.52923 -322.87329,455.93023 C -315.87229,459.84623 -314.31029,463.77323 -314.26929,467.97223"
         style="fill:#002156" />
      <path
         id="path2510"
         d="M -279.68929,444.72023 C -279.41929,445.61123 -279.25529,446.69323 -279.17129,447.54323 C -279.09929,448.32623 -279.06129,449.36423 -279.15429,450.34623 C -279.35529,452.80623 -280.52229,455.66423 -282.45329,457.67523 C -285.40229,460.75523 -289.24529,462.28623 -294.34029,462.52423 C -296.30629,462.64523 -296.77629,462.04423 -296.90729,460.62623 L -296.91929,460.31823 C -296.91929,460.31823 -296.96129,459.77023 -296.53229,459.74123 L -296.03929,459.69223 C -294.53329,459.50523 -292.29929,459.03423 -290.50729,456.85523 C -288.78929,454.61323 -288.20129,451.63323 -288.50029,448.42623 C -288.81929,445.09523 -289.82029,442.69523 -292.05929,440.97123 C -294.00329,439.47723 -296.28829,438.99223 -298.64029,439.17823 C -298.64029,439.17823 -299.58329,439.25823 -300.63029,439.42323 C -300.63029,439.42323 -301.24429,439.47723 -301.19129,440.07823 L -298.66729,466.22923 C -298.44829,468.53023 -297.82029,476.63423 -295.93229,478.30623 C -295.93229,478.30623 -298.08129,478.53323 -302.13029,478.86523 C -305.21829,479.11823 -307.62429,479.18023 -307.62429,479.18023 C -306.81229,477.17323 -306.94729,474.20623 -307.14929,470.75123 L -309.10629,450.13023 C -309.32829,447.77023 -309.72729,439.68123 -311.65129,437.68323 C -311.65129,437.68323 -306.47529,436.91723 -296.89929,436.01323 C -291.89129,435.53823 -287.78929,436.17723 -284.25129,438.57123 C -281.93629,440.13023 -280.34529,442.40123 -279.68929,444.72023"
         style="fill:#002156" />
      <path
         id="path2512"
         d="M -240.50729,453.15223 C -238.45729,462.21623 -242.71129,469.93323 -252.14229,472.29023 C -258.76929,473.94723 -268.31229,471.51623 -270.97629,459.89023 L -274.22029,446.16423 C -275.07429,442.32123 -276.47029,435.51823 -278.70029,433.74623 C -278.70029,433.74623 -276.20929,433.39323 -272.30829,432.66523 C -268.40729,431.93723 -266.59529,431.50323 -266.59529,431.50323 C -267.62029,433.11823 -266.54429,439.47823 -265.52529,444.14923 L -261.38429,461.59723 C -260.64529,464.79523 -259.60129,466.98423 -257.80829,468.27523 C -256.47929,469.23523 -254.70429,469.49723 -252.85629,469.16023 C -251.17329,468.84723 -249.42229,467.89723 -248.50529,466.19323 C -247.53229,464.40523 -247.53729,461.81823 -248.28629,458.62323 L -252.93429,441.17523 C -254.20629,436.37223 -255.67029,430.36123 -257.24429,429.35523 C -257.24429,429.35523 -255.35029,428.84223 -251.76129,427.81523 C -249.04329,427.04123 -247.42729,426.56923 -246.25429,426.15623 C -247.32729,428.78323 -244.77329,436.83723 -244.23129,439.14223 L -240.50729,453.15223"
         style="fill:#002156" />
      <path
         id="path2514"
         d="M -198.16029,449.57623 C -197.24629,449.92623 -196.26229,450.16623 -195.43629,449.81523 C -195.53029,450.38423 -196.06429,451.52023 -196.95929,452.43723 C -200.77229,456.34523 -204.35229,455.67323 -205.56429,455.19323 C -212.14029,452.68523 -223.13629,442.94023 -223.58929,441.87623 C -223.58929,441.87623 -223.70229,441.59823 -223.41729,441.48023 L -223.01829,441.30423 C -221.30129,440.58923 -219.35229,438.64823 -218.58329,436.81123 C -217.35429,434.11723 -217.56129,431.69823 -218.81029,428.73623 C -220.10229,425.65623 -222.36529,423.71623 -224.13729,423.19423 C -226.75829,422.42023 -228.71429,423.03423 -229.90629,423.50923 C -229.90629,423.50923 -231.47929,424.12823 -231.94729,424.59923 C -231.94729,424.59923 -232.26329,424.86023 -231.89629,425.93323 L -223.58929,449.66023 C -222.32729,453.15023 -220.13529,459.95823 -218.14929,461.10623 C -218.14929,461.10623 -220.39329,461.98923 -223.79629,463.21823 C -227.20029,464.44723 -229.27029,465.01923 -229.27029,465.01923 C -228.57729,462.36923 -231.19829,455.16523 -231.85929,453.14423 L -237.23129,437.12223 C -238.57429,433.26023 -241.02629,426.33823 -243.02229,425.23023 C -243.02229,425.23023 -239.10029,424.13223 -230.28429,420.42923 C -225.59629,418.46023 -221.05329,417.61823 -216.95529,418.81823 C -214.46829,419.54923 -212.78829,420.79823 -211.41329,422.79023 C -210.88729,423.56123 -210.50129,424.31823 -210.16729,425.10323 C -209.86129,425.83223 -209.65029,426.66923 -209.51129,427.44723 C -209.07729,429.86823 -209.44129,432.44223 -210.84129,434.87023 C -210.84129,434.87023 -212.10429,437.31523 -214.80029,439.23323 C -214.80029,439.23223 -206.14129,446.56823 -198.16029,449.57623"
         style="fill:#002156" />
    </g>
  </g>
</svg>
